<svg xmlns="http://www.w3.org/2000/svg" xmlns:xlink="http://www.w3.org/1999/xlink" width="160" height="114" viewBox="0 0 160 114">
  <defs>
    <linearGradient id="linear-gradient" x1="0.5" x2="0.5" y2="1.968" gradientUnits="objectBoundingBox">
      <stop offset="0" stop-color="#6d44e5"/>
      <stop offset="1" stop-color="#372273"/>
    </linearGradient>
    <filter id="Path_15460" x="54" y="0" width="51.25" height="56" filterUnits="userSpaceOnUse">
      <feOffset dy="3" input="SourceAlpha"/>
      <feGaussianBlur stdDeviation="3" result="blur"/>
      <feFlood flood-opacity="0.2"/>
      <feComposite operator="in" in2="blur"/>
      <feComposite in="SourceGraphic"/>
    </filter>
  </defs>
  <g id="Group_8200" data-name="Group 8200" transform="translate(-631 -262)">
    <rect id="Rectangle_2004" data-name="Rectangle 2004" width="160" height="90" rx="10" transform="translate(631 286)" fill="#e7faf3"/>
    <rect id="Rectangle_2005" data-name="Rectangle 2005" width="160" height="12" transform="translate(631 347)" fill="#517ce3"/>
    <g transform="matrix(1, 0, 0, 1, 631, 262)" filter="url(#Path_15460)">
      <path id="Path_15460-2" data-name="Path 15460" d="M9.671,1.33A32.332,32.332,0,0,1,16.625,0a32.332,32.332,0,0,1,6.954,1.33c2.636.713,5.294,1.556,6.857,2.066a3.657,3.657,0,0,1,2.479,3c1.415,10.633-1.869,18.513-5.854,23.726a27.964,27.964,0,0,1-5.978,5.826,16.993,16.993,0,0,1-2.489,1.484,5.037,5.037,0,0,1-1.969.57,5.049,5.049,0,0,1-1.969-.57,16.991,16.991,0,0,1-2.489-1.484A27.969,27.969,0,0,1,6.189,30.12C2.2,24.907-1.081,17.026.335,6.393a3.657,3.657,0,0,1,2.48-3q3.4-1.116,6.857-2.066Z" transform="translate(63 6)" fill="url(#linear-gradient)"/>
    </g>
    <path id="Path_15459" data-name="Path 15459" d="M12.386,5.778h-.825V4.127a4.127,4.127,0,0,0-8.254,0V5.778H2.481A1.656,1.656,0,0,0,.83,7.429v8.254a1.656,1.656,0,0,0,1.651,1.651h9.905a1.656,1.656,0,0,0,1.651-1.651V7.429A1.656,1.656,0,0,0,12.386,5.778Zm-7.429,0V4.127a2.476,2.476,0,0,1,4.953,0V5.778Z" transform="translate(703.191 276.482)" fill="#fff"/>
  </g>
</svg>
