<svg xmlns="http://www.w3.org/2000/svg" xmlns:xlink="http://www.w3.org/1999/xlink" width="150.782" height="181.297" viewBox="0 0 150.782 181.297">
  <defs>
    <linearGradient id="linear-gradient" x1="0.5" x2="0.5" y2="1.267" gradientUnits="objectBoundingBox">
      <stop offset="0" stop-color="#6d44e5" stop-opacity="0"/>
      <stop offset="1" stop-color="#6d44e5"/>
    </linearGradient>
  </defs>
  <g id="Group_8199" data-name="Group 8199" transform="translate(-1111.36 -215.703)">
    <g id="Group_7990" data-name="Group 7990" transform="translate(-3.697 -57.075)" opacity="0.8">
      <g id="Group_7989" data-name="Group 7989" transform="translate(1232.158 324.953) rotate(20)">
        <circle id="Ellipse_290" data-name="Ellipse 290" cx="18" cy="18" r="18" transform="translate(0 0.433)" fill="#85e6c4"/>
        <circle id="Ellipse_289" data-name="Ellipse 289" cx="16" cy="16" r="16" transform="translate(2 2.433)" fill="#e7faf3"/>
        <path id="Path_15452" data-name="Path 15452" d="M1.522-9.378q.536.034,1.112.034a7.381,7.381,0,0,0,1.13-.086,5.068,5.068,0,0,0,1.055-.28,3.078,3.078,0,0,0,.9-.536,2.683,2.683,0,0,0,.656-.861A3.557,3.557,0,0,0,6.7-12.356H1.031a3.772,3.772,0,0,1,.188-.337l.325-.542q.205-.331.456-.719H6.416a.887.887,0,0,0-.285-.6,3.135,3.135,0,0,0-.69-.542,4.968,4.968,0,0,0-.827-.394,2.129,2.129,0,0,0-.7-.154H1.031a2.68,2.68,0,0,1,.2-.411q.154-.274.325-.542l.3-.473A1.3,1.3,0,0,1,2-17.273h9.5l-.063.125q-.063.126-.165.3t-.228.388l-.234.394q-.108.183-.183.3l-.074.12h-2.5a7.322,7.322,0,0,1,.416.827,2.966,2.966,0,0,1,.222.861H11.5l-.947,1.6H8.8a4.541,4.541,0,0,1-.6,1.814,4.41,4.41,0,0,1-1.13,1.249,5.158,5.158,0,0,1-1.489.764,8.741,8.741,0,0,1-1.689.371.282.282,0,0,0,.04.074q.04.063.1.143a2.333,2.333,0,0,0,.137.194L9.234-.753v.285H7.067l-5.545-7.4Z" transform="translate(11.969 27.706)" fill="#85e6c4"/>
      </g>
      <path id="Path_15457" data-name="Path 15457" d="M.828,0h0l.828,21.519c0,.728-.371,1.317-.828,1.317S0,22.247,0,21.519L.828,0Z" transform="translate(1241.112 302.523)" fill="url(#linear-gradient)"/>
      <path id="Path_15456" data-name="Path 15456" d="M.828,0h0l.828,15.67a.9.9,0,0,1-.828.959A.9.9,0,0,1,0,15.67L.828,0Z" transform="translate(1249.944 310.387)" fill="url(#linear-gradient)"/>
      <path id="Path_15458" data-name="Path 15458" d="M.828,0h0l.828,15.67a.9.9,0,0,1-.828.959A.9.9,0,0,1,0,15.67L.828,0Z" transform="translate(1232.28 310.387)" fill="url(#linear-gradient)"/>
    </g>
    <g id="Group_7991" data-name="Group 7991" transform="translate(-108.82 -86.82)" opacity="0.8">
      <g id="Group_7989-2" data-name="Group 7989" transform="translate(1220.075 332.47) rotate(-14)">
        <path id="Path_15471" data-name="Path 15471" d="M18,0A18,18,0,1,1,0,18,18,18,0,0,1,18,0Z" transform="translate(0 0.433)" fill="#85e6c4"/>
        <circle id="Ellipse_289-2" data-name="Ellipse 289" cx="16" cy="16" r="16" transform="translate(2 2.433)" fill="#e7faf3"/>
        <path id="Path_15452-2" data-name="Path 15452" d="M1.522-9.378q.536.034,1.112.034a7.381,7.381,0,0,0,1.13-.086,5.068,5.068,0,0,0,1.055-.28,3.078,3.078,0,0,0,.9-.536,2.683,2.683,0,0,0,.656-.861A3.557,3.557,0,0,0,6.7-12.356H1.031a3.772,3.772,0,0,1,.188-.337l.325-.542q.205-.331.456-.719H6.416a.887.887,0,0,0-.285-.6,3.135,3.135,0,0,0-.69-.542,4.968,4.968,0,0,0-.827-.394,2.129,2.129,0,0,0-.7-.154H1.031a2.68,2.68,0,0,1,.2-.411q.154-.274.325-.542l.3-.473A1.3,1.3,0,0,1,2-17.273h9.5l-.063.125q-.063.126-.165.3t-.228.388l-.234.394q-.108.183-.183.3l-.074.12h-2.5a7.322,7.322,0,0,1,.416.827,2.966,2.966,0,0,1,.222.861H11.5l-.947,1.6H8.8a4.541,4.541,0,0,1-.6,1.814,4.41,4.41,0,0,1-1.13,1.249,5.158,5.158,0,0,1-1.489.764,8.741,8.741,0,0,1-1.689.371.282.282,0,0,0,.04.074q.04.063.1.143a2.333,2.333,0,0,0,.137.194L9.234-.753v.285H7.067l-5.545-7.4Z" transform="translate(11.969 27.706)" fill="#85e6c4"/>
      </g>
      <path id="Path_15457-2" data-name="Path 15457" d="M.828,0h0l.828,21.519c0,.728-.371,1.317-.828,1.317S0,22.247,0,21.519L.828,0Z" transform="translate(1241.112 302.523)" fill="url(#linear-gradient)"/>
      <path id="Path_15456-2" data-name="Path 15456" d="M.828,0h0l.828,15.67a.9.9,0,0,1-.828.959A.9.9,0,0,1,0,15.67L.828,0Z" transform="translate(1249.944 310.387)" fill="url(#linear-gradient)"/>
      <path id="Path_15458-2" data-name="Path 15458" d="M.828,0h0l.828,15.67a.9.9,0,0,1-.828.959A.9.9,0,0,1,0,15.67L.828,0Z" transform="translate(1232.28 310.387)" fill="url(#linear-gradient)"/>
    </g>
    <g id="Group_7996" data-name="Group 7996" transform="translate(-1)">
      <path id="Path_15453" data-name="Path 15453" d="M1.5,0h0L3,38.983C3,40.3,2.328,41.37,1.5,41.37S0,40.3,0,38.983L1.5,0Z" transform="translate(1184 250.63)" fill="url(#linear-gradient)"/>
      <path id="Path_15454" data-name="Path 15454" d="M1.5,0h0L3,28.387a1.632,1.632,0,0,1-1.5,1.738A1.632,1.632,0,0,1,0,28.387L1.5,0Z" transform="translate(1200 264.875)" fill="url(#linear-gradient)"/>
      <path id="Path_15455" data-name="Path 15455" d="M1.5,0h0L3,28.387a1.632,1.632,0,0,1-1.5,1.738A1.632,1.632,0,0,1,0,28.387L1.5,0Z" transform="translate(1168 264.875)" fill="url(#linear-gradient)"/>
      <g id="Group_7988" data-name="Group 7988" transform="translate(0 -1)">
        <circle id="Ellipse_290-2" data-name="Ellipse 290" cx="33" cy="33" r="33" transform="translate(1153 296)" fill="#85e6c4"/>
        <circle id="Ellipse_289-3" data-name="Ellipse 289" cx="30" cy="30" r="30" transform="translate(1156 299)" fill="#e7faf3"/>
        <path id="Path_15452-3" data-name="Path 15452" d="M1.92-2.971q.971.062,2.015.062a13.371,13.371,0,0,0,2.046-.155A9.181,9.181,0,0,0,7.893-3.57a5.577,5.577,0,0,0,1.633-.971A4.861,4.861,0,0,0,10.715-6.1,6.444,6.444,0,0,0,11.3-8.365H1.031a6.833,6.833,0,0,1,.341-.61l.589-.982q.372-.6.827-1.3h8a1.607,1.607,0,0,0-.517-1.085,5.678,5.678,0,0,0-1.25-.982,9,9,0,0,0-1.5-.713,3.856,3.856,0,0,0-1.261-.279H1.031a4.855,4.855,0,0,1,.362-.744q.279-.5.589-.982L2.53-16.9a2.349,2.349,0,0,1,.258-.372H20.005l-.114.227q-.114.227-.3.548t-.413.7l-.424.713q-.2.331-.331.548l-.134.217H13.763a13.265,13.265,0,0,1,.754,1.5,5.374,5.374,0,0,1,.4,1.56h5.085L18.29-8.365H15.107a8.227,8.227,0,0,1-1.085,3.286,7.989,7.989,0,0,1-2.046,2.263,9.343,9.343,0,0,1-2.7,1.385,15.836,15.836,0,0,1-3.059.672.511.511,0,0,0,.072.134q.072.114.176.258a4.225,4.225,0,0,0,.248.351l9.177,12.67v.517H11.965L1.92-.242Z" transform="translate(1175.482 332.551)" fill="#85e6c4"/>
      </g>
    </g>
    <g id="Group_7993" data-name="Group 7993" transform="translate(-1 -5)">
      <rect id="Rectangle_2003" data-name="Rectangle 2003" width="118" height="26" rx="5" transform="translate(1127 376)" fill="#69d57a"/>
      <g id="Group_7992" data-name="Group 7992" transform="translate(-3.212 7)">
        <path id="Path_15474" data-name="Path 15474" d="M-20.234-10.469-25.109.078h-1.078l-4.875-10.547h2.547l2.859,6.922,2.875-6.922Zm4.828,2.375a3.81,3.81,0,0,1,1.992.5,3.318,3.318,0,0,1,1.281,1.383,4.469,4.469,0,0,1,.445,2.039v.844h-5.719a2.071,2.071,0,0,0,.781,1.281,2.424,2.424,0,0,0,1.531.484,3.51,3.51,0,0,0,1.563-.344,5.4,5.4,0,0,0,1.125-.7l-.016,1.844A4.621,4.621,0,0,1-13.539-.1a3.914,3.914,0,0,1-1.633.336A4.334,4.334,0,0,1-17.3-.3,4.1,4.1,0,0,1-18.836-1.75a3.927,3.927,0,0,1-.57-2.109,4.361,4.361,0,0,1,.516-2.109,4.162,4.162,0,0,1,1.422-1.539A3.715,3.715,0,0,1-15.406-8.094Zm-.047,1.734a1.77,1.77,0,0,0-1.234.453,2.349,2.349,0,0,0-.687,1.219h3.781a1.619,1.619,0,0,0-.625-1.258A2.037,2.037,0,0,0-15.453-6.359Zm10.547.688a2.105,2.105,0,0,0-1.047-.281,1.561,1.561,0,0,0-1.141.445,4.374,4.374,0,0,0-.8,1.1V0H-9.875V-7.891h1.984v1.484A4.389,4.389,0,0,1-6.93-7.578a1.9,1.9,0,0,1,1.258-.469,2,2,0,0,1,.766.141ZM-1.719-12a1.336,1.336,0,0,1,.969.4,1.28,1.28,0,0,1,.406.945,1.288,1.288,0,0,1-.406.938,1.323,1.323,0,0,1-.969.406,1.3,1.3,0,0,1-.961-.406,1.3,1.3,0,0,1-.4-.937,1.292,1.292,0,0,1,.4-.945A1.31,1.31,0,0,1-1.719-12ZM-.562-7.891V0H-2.547V-6.2H-3.812V-7.891Zm7.125,0v1.656H4.516V0H2.531V-6.234h-1.2V-7.891h1.2v-.7a3.005,3.005,0,0,1,.383-1.555,2.632,2.632,0,0,1,1.008-.992A2.806,2.806,0,0,1,5.3-11.484a3.138,3.138,0,0,1,.875.109,2.373,2.373,0,0,1,.656.3v1.656a2.146,2.146,0,0,0-1.187-.3,1.229,1.229,0,0,0-.8.3,1.2,1.2,0,0,0-.328.945v.578ZM9.859-12a1.336,1.336,0,0,1,.969.4,1.28,1.28,0,0,1,.406.945,1.288,1.288,0,0,1-.406.938,1.323,1.323,0,0,1-.969.406A1.3,1.3,0,0,1,8.9-9.719a1.3,1.3,0,0,1-.4-.937,1.292,1.292,0,0,1,.4-.945A1.31,1.31,0,0,1,9.859-12Zm1.156,4.109V0H9.031V-6.2H7.766V-7.891Zm5.953-.2a3.81,3.81,0,0,1,1.992.5,3.318,3.318,0,0,1,1.281,1.383,4.469,4.469,0,0,1,.445,2.039v.844H14.969a2.071,2.071,0,0,0,.781,1.281,2.424,2.424,0,0,0,1.531.484,3.51,3.51,0,0,0,1.563-.344,5.4,5.4,0,0,0,1.125-.7L19.953-.766A4.621,4.621,0,0,1,18.836-.1,3.914,3.914,0,0,1,17.2.234,4.334,4.334,0,0,1,15.07-.3,4.1,4.1,0,0,1,13.539-1.75a3.927,3.927,0,0,1-.57-2.109,4.361,4.361,0,0,1,.516-2.109,4.162,4.162,0,0,1,1.422-1.539A3.715,3.715,0,0,1,16.969-8.094Zm-.047,1.734a1.77,1.77,0,0,0-1.234.453A2.349,2.349,0,0,0,15-4.687h3.781a1.619,1.619,0,0,0-.625-1.258A2.037,2.037,0,0,0,16.922-6.359ZM30-11.25V0H28.016V-1.328a3.185,3.185,0,0,1-1,1.1,2.6,2.6,0,0,1-1.531.461A3.346,3.346,0,0,1,23.727-.25a3.486,3.486,0,0,1-1.289-1.406,4.752,4.752,0,0,1-.484-2.234,4.784,4.784,0,0,1,.492-2.25,3.609,3.609,0,0,1,1.328-1.445,3.5,3.5,0,0,1,1.852-.508,3.128,3.128,0,0,1,1.3.3,3.16,3.16,0,0,1,1.094.8v-4.25ZM26.031-6.141a1.784,1.784,0,0,0-1.07.32,2.2,2.2,0,0,0-.7.828,2.46,2.46,0,0,0-.25,1.1,2.241,2.241,0,0,0,.539,1.516,1.8,1.8,0,0,0,1.43.625,1.871,1.871,0,0,0,.992-.281,2.145,2.145,0,0,0,.75-.789,2.442,2.442,0,0,0,.289-1.227V-5.172a3.42,3.42,0,0,0-.914-.711A2.272,2.272,0,0,0,26.031-6.141Z" transform="translate(1199 388)" fill="#fff"/>
        <path id="correct" d="M17.836,8.384l-7.626,7.6a1.172,1.172,0,0,1-.831.356,1.123,1.123,0,0,1-.831-.356L4.78,12.241A1.2,1.2,0,1,1,6.471,10.55l2.908,2.908,6.766-6.766a1.182,1.182,0,0,1,1.691,0A1.238,1.238,0,0,1,17.836,8.384Z" transform="translate(1144 371.664)" fill="#fff"/>
      </g>
    </g>
  </g>
</svg>
