<?xml version="1.0" encoding="utf-8"?>
<!-- Generator: Adobe Illustrator 24.2.3, SVG Export Plug-In . SVG Version: 6.00 Build 0)  -->
<svg version="1.1" id="Layer_1" xmlns="http://www.w3.org/2000/svg" xmlns:xlink="http://www.w3.org/1999/xlink" x="0px" y="0px"
	 viewBox="0 0 1080 1080" style="enable-background:new 0 0 1080 1080;" xml:space="preserve">
<style type="text/css">
	.st0{fill:#178FCC;}
	.st1{font-family:'Magistral-Bold';}
	.st2{font-size:147.9005px;}
</style>
<g>
	<text transform="matrix(1 0 0 1 272.3789 918.6895)" class="st0 st1 st2">StanPe</text>
	<path class="st0" d="M728.39,112.5H351.61c-70.44,0-128.07,57.63-128.07,128.07v376.78c0,70.44,57.63,128.07,128.07,128.07h376.78
		c70.44,0,128.07-57.63,128.07-128.07V240.57C856.46,170.13,798.83,112.5,728.39,112.5z M392.63,393.15
		c-9.15-0.44-18.52-1.88-27.22-4.67c-19.53-6.25-35.94-17.49-48.31-34.17c-8.46-11.41-15.47-23.52-18.24-37.66
		c-1.16-5.95-2.02-11.96-3.01-17.94c0-4.15,0-8.3,0-12.46c0.3-1.88,0.58-3.77,0.92-5.64c1.02-5.71,1.51-11.59,3.21-17.08
		c6.41-20.66,18.48-37.6,35.28-51.09c17.58-14.12,37.93-20.69,60.36-20.8c25.04-0.12,50.08-0.02,75.13-0.02
		c44.56,0.01,89.13,0.03,133.69,0.01c13.14-0.01,26.29-0.19,39.43-0.17c1.77,0,4.61,0.28,5.07,1.28c0.69,1.51,0.2,4.05-0.67,5.68
		c-2.86,5.36-6.19,10.46-9.21,15.74c-8.36,14.62-16.69,29.27-25.03,43.9H446.1v0.01c-13.44-0.03-26.88-0.05-40.32-0.02
		c-5.77,0.01-11.68,0.33-17.29,1.56c-16.95,3.71-31.19,25.74-23.07,45.2c4.71,11.29,17.04,21.19,29.26,21.32
		c15.08,0.16,30.17,0.06,45.25,0.06c45.12,0.02,90.25,0.03,135.37,0.05l-38.82,67.13c-12.71-0.01-25.42,0.35-38.14,0.34
		c-19.64-0.02-39.29-0.27-58.93-0.35C423.81,393.31,408.19,393.89,392.63,393.15z M784.15,438.22c-1.34,6.47-2.09,13.13-4.14,19.36
		c-8.49,25.92-24.61,45.7-48.52,59.1c-10.61,5.94-21.88,10.14-33.81,11.7c-8.86,1.16-17.95,0.69-26.94,0.7
		c-30.86,0.03-61.71,0-92.57-0.12c-4.17-0.02-6.9,1.33-8.9,5.23c-3.96,7.74-8.31,15.29-12.67,22.82
		c-13.31,22.95-26.57,45.92-40.11,68.73c-7,11.8-15.98,22.11-28.13,28.72c-23.23,12.65-46.85,15.54-69.71,7.51l95.8-165.86
		l19.76-32.85c1.45-0.88,3.14-1.25,5.22-1.2c8.43,0.18,16.87,0.27,25.31,0.26c37.77-0.02,75.55,0.01,113.32-0.23
		c5.14-0.03,10.44-0.89,15.37-2.34c14.2-4.19,21.47-15.01,23.8-28.7c2.64-15.51-10.96-33.85-26.62-36.01
		c-11.15-1.54-22.56-1.5-33.86-1.6c-18.51-0.16-37.02,0.24-55.53,0.23c-8.36,0-16.73-0.06-25.09-0.11l40.47-67.3
		c21.51,0.01,43.03,0.02,64.54,0.02c22.21,0,42.51,5.88,60.55,19.04c17.6,12.84,30.2,29.48,37.25,50.08
		c2.35,6.87,3.51,14.15,5.21,21.24C784.15,423.83,784.15,431.02,784.15,438.22z"/>
</g>
</svg>
